<?xml version="1.0" encoding="UTF-8"?>
<svg id="logo_mix" xmlns="http://www.w3.org/2000/svg" xmlns:xlink="http://www.w3.org/1999/xlink" viewBox="0 0 581.99 664.17">
  <defs>
    <style>
      .cls-1 {
        fill: none;
      }

      .cls-2 {
        fill: #ae750c;
      }

      .cls-3 {
        fill: #fab16a;
      }

      .cls-4 {
        stroke: #c9aa23;
      }

      .cls-4, .cls-5 {
        fill: #fcee21;
      }

      .cls-4, .cls-5, .cls-6 {
        stroke-miterlimit: 10;
      }

      .cls-7 {
        fill: #e9168b;
      }

      .cls-5, .cls-6 {
        stroke: #f7cf2a;
      }

      .cls-8 {
        fill: url(#linear-gradient);
      }

      .cls-9 {
        fill: #b11116;
      }

      .cls-10 {
        fill: #ed1c24;
      }

      .cls-11 {
        fill: #dc9318;
      }

      .cls-6 {
        fill: url(#Pineapple);
      }

      .cls-12 {
        fill: #61bc50;
      }

      .cls-13 {
        fill: #f9a61e;
      }

      .cls-14 {
        fill: #39b54a;
      }
    </style>
    <linearGradient id="linear-gradient" x1="184.76" y1="336.76" x2="542.28" y2="636.76" gradientUnits="userSpaceOnUse">
      <stop offset="0" stop-color="#eb0d8b"/>
      <stop offset=".33" stop-color="#ec2027"/>
      <stop offset=".66" stop-color="#f9a61c"/>
      <stop offset="1" stop-color="#f4ea02"/>
    </linearGradient>
    <pattern id="Pineapple" x="0" y="0" width="57.6" height="57.6" patternTransform="translate(-57.05 -50.43)" patternUnits="userSpaceOnUse" viewBox="0 0 57.6 57.6">
      <g>
        <rect class="cls-1" y="0" width="57.6" height="57.6"/>
        <polygon class="cls-4" points="43.53 66.38 72.02 48.82 100.69 66.38 72.02 83.95 43.53 66.38"/>
        <g>
          <polygon class="cls-4" points="-14.07 66.38 14.42 48.82 43.09 66.38 14.42 83.95 -14.07 66.38"/>
          <polygon class="cls-4" points="14.51 48.82 42.99 31.25 71.66 48.82 42.99 66.38 14.51 48.82"/>
        </g>
        <polygon class="cls-4" points="-43.09 48.82 -14.61 31.25 14.06 48.82 -14.61 66.38 -43.09 48.82"/>
        <polygon class="cls-4" points="43.53 37.58 72.02 20.02 100.69 37.58 72.02 55.15 43.53 37.58"/>
        <g>
          <polygon class="cls-4" points="-14.07 37.58 14.42 20.02 43.09 37.58 14.42 55.15 -14.07 37.58"/>
          <polygon class="cls-4" points="14.51 20.02 42.99 2.45 71.66 20.02 42.99 37.58 14.51 20.02"/>
        </g>
        <polygon class="cls-4" points="-43.09 20.02 -14.61 2.45 14.06 20.02 -14.61 37.58 -43.09 20.02"/>
        <polygon class="cls-4" points="43.53 8.78 72.02 -8.78 100.69 8.78 72.02 26.35 43.53 8.78"/>
        <g>
          <polygon class="cls-4" points="-14.07 8.78 14.42 -8.78 43.09 8.78 14.42 26.35 -14.07 8.78"/>
          <polygon class="cls-4" points="14.51 -8.78 42.99 -26.35 71.66 -8.78 42.99 8.78 14.51 -8.78"/>
        </g>
        <polygon class="cls-4" points="-43.09 -8.78 -14.61 -26.35 14.06 -8.78 -14.61 8.78 -43.09 -8.78"/>
      </g>
    </pattern>
  </defs>
  <path id="logo" class="cls-8" d="M509.89,429.73c0-118.12-95.96-213.87-214.34-213.87s-214.34,95.75-214.34,213.87,95.96,213.87,214.34,213.87c44.39,0,145.79,35.9,180,12.84,28.53-19.23,52.17-45.14,68.68-75.48,16.47-30.28-34.34-114.35-34.34-151.23ZM295.55,570.01c-77.65,0-140.59-62.81-140.59-140.28s62.94-140.28,140.59-140.28,140.59,62.81,140.59,140.28-62.94,140.28-140.59,140.28Z"/>
  <g id="pineapple">
    <g id="leaves">
      <path class="cls-12" d="M535.58,118.72s-30.5-13.14-41-10.11,20.5,54.85,20.5,54.85l14.04-19.37,6.46-25.37Z"/>
      <path class="cls-12" d="M535.58,118.72s30.5-13.14,41-10.11c10.5,3.03-20.5,54.85-20.5,54.85l-14.04-19.37-6.46-25.37Z"/>
      <path class="cls-12" d="M553.14,125.25c0,16.93-7.86,30.65-17.55,30.65s-17.55-13.72-17.55-30.65,17.55-43.72,17.55-43.72c0,0,17.55,26.79,17.55,43.72Z"/>
    </g>
    <path id="normal_body" class="cls-5" d="M581.49,198.49c0,32.2,0,58.3-45.9,58.3s-45.9-26.1-45.9-58.3,20.55-58.3,45.9-58.3,45.9,26.1,45.9,58.3Z"/>
    <path id="patterned_body" class="cls-6" d="M581.49,198.49c0,32.2,0,58.3-45.9,58.3s-45.9-26.1-45.9-58.3,20.55-58.3,45.9-58.3,45.9,26.1,45.9,58.3Z"/>
  </g>
  <g id="orange">
    <g id="stem">
      <path class="cls-14" d="M399.16,3.47c2.91,5.68-8.33,17.23-14.01,20.14s-9.56-.92-12.47-6.59c-2.91-5.68-3.73-11.06,1.94-13.97,5.68-2.91,21.62-5.26,24.53.42Z"/>
      <path class="cls-2" d="M373.79,5.3l-3.55.36c-2.46.25-4.2,2.51-3.81,4.94l4.74,29.73c.33,2.08,2.13,3.61,4.24,3.61h0c2.44,0,4.38-2.03,4.29-4.46l-1.19-30.08c-.1-2.47-2.25-4.35-4.71-4.1Z"/>
    </g>
    <circle id="base" class="cls-13" cx="378.25" cy="95.82" r="61.98"/>
    <g id="dots">
      <circle class="cls-11" cx="351.57" cy="60.14" r="2.99"/>
      <circle class="cls-11" cx="343.64" cy="60.14" r="2.99"/>
      <circle class="cls-11" cx="347.78" cy="66.12" r="2.99"/>
    </g>
  </g>
  <g id="passionfruit">
    <ellipse id="body" class="cls-10" cx="202.52" cy="90.61" rx="53.77" ry="63.85"/>
    <rect id="stem-2" data-name="stem" class="cls-9" x="198.96" y="1.3" width="11.67" height="54.01" rx="5.84" ry="5.84" transform="translate(21.52 -67.36) rotate(19.7)"/>
  </g>
  <g id="grapefruit">
    <circle id="base-2" data-name="base" class="cls-3" cx="66.53" cy="192.07" r="66.53"/>
    <g id="inside">
      <path class="cls-7" d="M55.06,214.28l-10.56,18.28c-5.1,8.84,1.28,19.89,11.48,19.89h21.11c10.21,0,16.58-11.05,11.48-19.89l-10.56-18.28c-5.1-8.84-17.86-8.84-22.96,0Z"/>
      <path class="cls-7" d="M91.53,153.39l-10.56,18.28c-5.1,8.84,1.28,19.89,11.48,19.89h21.11c10.21,0,16.58-11.05,11.48-19.89l-10.56-18.28c-5.1-8.84-17.86-8.84-22.96,0Z"/>
      <path class="cls-7" d="M78.03,169.97l10.56-18.28c5.1-8.84-1.28-19.89-11.48-19.89h-21.11c-10.21,0-16.58,11.05-11.48,19.89l10.56,18.28c5.1,8.84,17.86,8.84,22.96,0Z"/>
      <path class="cls-7" d="M114.49,232.73l10.56-18.28c5.1-8.84-1.28-19.89-11.48-19.89h-21.11c-10.21,0-16.58,11.05-11.48,19.89l10.56,18.28c5.1,8.84,17.86,8.84,22.96,0Z"/>
      <path class="cls-7" d="M18.22,153.39l-10.56,18.28c-5.1,8.84,1.28,19.89,11.48,19.89h21.11c10.21,0,16.58-11.05,11.48-19.89l-10.56-18.28c-5.1-8.84-17.86-8.84-22.96,0Z"/>
      <path class="cls-7" d="M41.19,232.73l10.56-18.28c5.1-8.84-1.28-19.89-11.48-19.89h-21.11c-10.21,0-16.58,11.05-11.48,19.89l10.56,18.28c5.1,8.84,17.86,8.84,22.96,0Z"/>
    </g>
  </g>
</svg>