<?xml version="1.0" encoding="UTF-8"?>
<svg id="orange" xmlns="http://www.w3.org/2000/svg" viewBox="0 0 113.3 144.24">
  <defs>
    <style>
      .cls-1 {
        fill: #ae750c;
      }

      .cls-2 {
        fill: #dc9318;
      }

      .cls-3 {
        fill: #f9a61e;
      }

      .cls-4 {
        fill: #39b54a;
      }

      /* Turn cursor into pointer when hovering */
      #orange:hover {
        cursor: pointer;
      }

      /* Make transition for the stem */
      #stem {
        transition: all 1s ease;
      }

      /* When the icon is hovered over, make the stem move up and right */
      #orange:hover #stem {
        transform: translate(100px, -100px);
      }

    </style>
    <script>
      const orangey = document.querySelector('#orange');

      function flavourLogId() {
        console.log("Flavour: " + this.id);
      }

      orangey.addEventListener('click', flavourLogId);
    </script>
  </defs>
  <g id="stem">
    <path class="cls-4" d="M75.77,3.17c2.66,5.19-7.61,15.75-12.8,18.41s-8.74-.84-11.39-6.03-3.41-10.11,1.78-12.77,19.76-4.8,22.42.39Z"/>
    <path class="cls-1" d="M52.57,4.84l-3.25.32c-2.24.22-3.84,2.29-3.48,4.52l4.33,27.18c.3,1.9,1.94,3.3,3.87,3.3h0c2.23,0,4.01-1.85,3.92-4.08l-1.08-27.5c-.09-2.26-2.06-3.97-4.31-3.75Z"/>
  </g>
  <circle id="base" class="cls-3" cx="56.65" cy="87.58" r="56.65"/>
  <g id="dots">
    <circle class="cls-2" cx="32.26" cy="54.98" r="2.73"/>
    <circle class="cls-2" cx="25.02" cy="54.98" r="2.73"/>
    <circle class="cls-2" cx="28.8" cy="60.44" r="2.73"/>
  </g>
</svg>