<?xml version="1.0" encoding="UTF-8"?>
<svg id="packet" xmlns="http://www.w3.org/2000/svg" xmlns:xlink="http://www.w3.org/1999/xlink" viewBox="0 0 199.14 311.41">
  <defs>
    <style>
      .cls-1 {
        stroke: #010101;
      }

      .cls-1, .cls-2 {
        fill: #231f20;
        stroke-miterlimit: 10;
      }

      .cls-2 {
        stroke: #58595b;
      }

      .cls-3 {
        fill: url(#linear-gradient);
      }

      .cls-4 {
        fill: #fff;
        font-size: 54.13px;
      }

      .cls-4, .cls-5 {
        font-family: Avenir-Roman, Avenir;
      }

      .cls-5 {
        fill: #eb0d8a;
        font-size: 13.75px;
      }

      .cls-6 {
        letter-spacing: -.02em;
      }

      #packet:hover {
        cursor: pointer;
      }

      #top {
        transition: all 0.5s ease;
        transform-origin: 50%;
      }

      #packet:hover #top {
        transform: rotate(-5deg);
      }

      #packet:hover #flavour {
        font-family: helvetica;
      }
    </style>
    <linearGradient id="linear-gradient" x1="68.42" y1="78.18" x2="154.34" y2="150.26" gradientUnits="userSpaceOnUse">
      <stop offset="0" stop-color="#8a1b54"/>
      <stop offset=".5" stop-color="#e8198a"/>
      <stop offset="1" stop-color="#e8198a"/>
    </linearGradient>
  </defs>
  <path id="body" class="cls-1" d="M.5,35.7v240.01c0,19.44,15.76,35.2,35.2,35.2h127.74c19.44,0,35.2-15.76,35.2-35.2V35.7H.5Z"/>
  <path id="top" class="cls-2" d="M198.64,35.7c0-19.44-15.76-35.2-35.2-35.2H35.7C16.26.5.5,16.26.5,35.7h198.14Z"/>
  <text id="wordmark" class="cls-4" transform="translate(13.07 207.61)"><tspan x="0" y="0">Quat</tspan><tspan class="cls-6" x="122.38" y="0">r</tspan><tspan x="140.46" y="0">o</tspan></text>
  <text id="flavour" class="cls-5" transform="translate(67.66 230.78)"><tspan x="0" y="0">Grapefruit</tspan></text>
  <path id="icon" class="cls-3" d="M146.55,100.51c0-28.38-23.06-51.39-51.5-51.39s-51.5,23.01-51.5,51.39,23.06,51.39,51.5,51.39c10.67,0,35.03,8.63,43.25,3.09,6.86-4.62,12.54-10.85,16.5-18.14,3.96-7.28-8.25-27.48-8.25-36.34ZM95.05,134.22c-18.66,0-33.78-15.09-33.78-33.71s15.13-33.71,33.78-33.71,33.78,15.09,33.78,33.71-15.13,33.71-33.78,33.71Z"/>
</svg>