<?xml version="1.0" encoding="UTF-8"?>
<svg id="pineapple" xmlns="http://www.w3.org/2000/svg" xmlns:xlink="http://www.w3.org/1999/xlink" viewBox="0 0 77.58 146.69">
  <defs>
    <style>
      .cls-1 {
        fill: none;
      }

      .cls-2 {
        stroke: #c9aa23;
      }

      .cls-2, .cls-3 {
        fill: #fcee21;
      }

      .cls-2, .cls-3, .cls-4 {
        stroke-miterlimit: 10;
      }

      .cls-3, .cls-4 {
        stroke: #f7cf2a;
      }

      .cls-4 {
        fill: url(#Pineapple);
      }

      .cls-5 {
        fill: #61bc50;
      }
    </style>
    <pattern id="Pineapple" x="0" y="0" width="57.6" height="57.6" patternTransform="translate(-317.36 -289.92)" patternUnits="userSpaceOnUse" viewBox="0 0 57.6 57.6">
      <g>
        <rect class="cls-1" y="0" width="57.6" height="57.6"/>
        <polygon class="cls-2" points="43.53 66.38 72.02 48.82 100.69 66.38 72.02 83.95 43.53 66.38"/>
        <g>
          <polygon class="cls-2" points="-14.07 66.38 14.42 48.82 43.09 66.38 14.42 83.95 -14.07 66.38"/>
          <polygon class="cls-2" points="14.51 48.82 42.99 31.25 71.66 48.82 42.99 66.38 14.51 48.82"/>
        </g>
        <polygon class="cls-2" points="-43.09 48.82 -14.61 31.25 14.06 48.82 -14.61 66.38 -43.09 48.82"/>
        <polygon class="cls-2" points="43.53 37.58 72.02 20.02 100.69 37.58 72.02 55.15 43.53 37.58"/>
        <g>
          <polygon class="cls-2" points="-14.07 37.58 14.42 20.02 43.09 37.58 14.42 55.15 -14.07 37.58"/>
          <polygon class="cls-2" points="14.51 20.02 42.99 2.45 71.66 20.02 42.99 37.58 14.51 20.02"/>
        </g>
        <polygon class="cls-2" points="-43.09 20.02 -14.61 2.45 14.06 20.02 -14.61 37.58 -43.09 20.02"/>
        <polygon class="cls-2" points="43.53 8.78 72.02 -8.78 100.69 8.78 72.02 26.35 43.53 8.78"/>
        <g>
          <polygon class="cls-2" points="-14.07 8.78 14.42 -8.78 43.09 8.78 14.42 26.35 -14.07 8.78"/>
          <polygon class="cls-2" points="14.51 -8.78 42.99 -26.35 71.66 -8.78 42.99 8.78 14.51 -8.78"/>
        </g>
        <polygon class="cls-2" points="-43.09 -8.78 -14.61 -26.35 14.06 -8.78 -14.61 8.78 -43.09 -8.78"/>
      </g>
    </pattern>
  </defs>
  <g id="leaves">
    <path class="cls-5" d="M38.79,31.02S13.35,20.05,4.59,22.58c-8.76,2.53,17.1,45.75,17.1,45.75l11.71-16.16,5.39-21.16Z"/>
    <path class="cls-5" d="M38.79,31.02s25.44-10.96,34.2-8.43c8.76,2.53-17.1,45.75-17.1,45.75l-11.71-16.16-5.39-21.16Z"/>
    <path class="cls-5" d="M53.43,36.47c0,14.12-6.55,25.57-14.64,25.57s-14.64-11.45-14.64-25.57S38.79,0,38.79,0c0,0,14.64,22.35,14.64,36.47Z"/>
  </g>
  <path id="normal_body" class="cls-3" d="M77.08,97.56c0,26.86,0,48.63-38.29,48.63S.5,124.42.5,97.56s17.14-48.63,38.29-48.63,38.29,21.77,38.29,48.63Z"/>
  <path id="patterned_body" class="cls-4" d="M77.08,97.56c0,26.86,0,48.63-38.29,48.63S.5,124.42.5,97.56s17.14-48.63,38.29-48.63,38.29,21.77,38.29,48.63Z"/>
</svg>