<?xml version="1.0" encoding="UTF-8"?>
<svg id="wordmark" xmlns="http://www.w3.org/2000/svg" viewBox="0 0 222.84 53.14">
  <defs>
    <style>
      .cls-1 {
        fill: #231f20;
      }
    </style>
  </defs>
  <path id="letter1" class="cls-1" d="M55.8,52.27h-29.59c-3.74,0-7.21-.67-10.4-2.02-3.19-1.34-5.95-3.18-8.28-5.51-2.33-2.33-4.17-5.09-5.51-8.28-1.34-3.19-2.02-6.64-2.02-10.33s.67-7.14,2.02-10.33c1.34-3.19,3.18-5.95,5.51-8.28,2.33-2.33,5.09-4.16,8.28-5.51,3.19-1.34,6.66-2.02,10.4-2.02s7.21.67,10.4,2.02c3.19,1.34,5.95,3.18,8.28,5.51,2.33,2.33,4.16,5.09,5.51,8.28,1.34,3.19,2.02,6.64,2.02,10.33,0,2.16-.29,4.31-.86,6.44-.58,2.14-1.4,4.13-2.48,5.98-1.08,1.85-2.38,3.5-3.89,4.97-1.51,1.46-3.23,2.6-5.15,3.42v.14h15.77v5.18ZM6.48,26.14c0,2.88.5,5.57,1.51,8.06,1.01,2.5,2.39,4.67,4.14,6.52,1.75,1.85,3.83,3.3,6.23,4.36,2.4,1.06,5.02,1.58,7.85,1.58s5.39-.53,7.81-1.58c2.42-1.05,4.51-2.51,6.26-4.36,1.75-1.85,3.13-4.02,4.14-6.52,1.01-2.5,1.51-5.18,1.51-8.06s-.49-5.5-1.48-7.99c-.98-2.5-2.35-4.67-4.1-6.52-1.75-1.85-3.83-3.31-6.23-4.39-2.4-1.08-5.04-1.62-7.92-1.62s-5.52.54-7.92,1.62c-2.4,1.08-4.48,2.54-6.23,4.39-1.75,1.85-3.12,4.02-4.1,6.52-.98,2.5-1.48,5.16-1.48,7.99Z"/>
  <path id="letter2" class="cls-1" d="M91.37,44.28c0,1.54.05,2.98.14,4.32.1,1.34.14,2.57.14,3.67h-5.33c0-.91-.03-1.82-.07-2.74-.05-.91-.07-1.85-.07-2.81h-.14c-.38.82-.92,1.61-1.62,2.38-.7.77-1.52,1.45-2.48,2.05-.96.6-2.04,1.08-3.24,1.44-1.2.36-2.5.54-3.89.54-2.21,0-4.12-.34-5.72-1.01-1.61-.67-2.94-1.61-4-2.81-1.06-1.2-1.84-2.65-2.34-4.36s-.76-3.56-.76-5.58v-20.81h5.62v20.23c0,2.83.62,5.06,1.87,6.7s3.19,2.45,5.83,2.45c1.82,0,3.4-.31,4.72-.94,1.32-.62,2.4-1.51,3.24-2.66s1.46-2.52,1.87-4.1c.41-1.58.61-3.33.61-5.26v-16.42h5.62v25.7Z"/>
  <path id="letter3" class="cls-1" d="M101.59,22.9c1.73-1.78,3.78-3.08,6.16-3.92s4.79-1.26,7.24-1.26c4.99,0,8.59,1.18,10.8,3.53,2.21,2.35,3.31,5.93,3.31,10.73v14.47c0,.96.05,1.96.14,2.99.1,1.03.22,1.98.36,2.84h-5.4c-.19-.77-.3-1.62-.32-2.56-.02-.94-.04-1.76-.04-2.48h-.14c-1.11,1.73-2.58,3.14-4.43,4.25s-4.07,1.66-6.66,1.66c-1.73,0-3.35-.22-4.86-.65-1.51-.43-2.83-1.07-3.96-1.91-1.13-.84-2.03-1.88-2.7-3.13-.67-1.25-1.01-2.69-1.01-4.32,0-2.78.72-4.97,2.16-6.55,1.44-1.58,3.23-2.76,5.36-3.53,2.13-.77,4.44-1.25,6.91-1.44,2.47-.19,4.74-.29,6.8-.29h2.16v-1.01c0-2.45-.73-4.29-2.2-5.54-1.46-1.25-3.52-1.87-6.16-1.87-1.82,0-3.61.3-5.36.9-1.75.6-3.3,1.52-4.64,2.77l-3.53-3.67ZM117.86,36.07c-3.6,0-6.46.5-8.57,1.51-2.11,1.01-3.17,2.66-3.17,4.97,0,2.11.71,3.61,2.12,4.5,1.42.89,3.18,1.33,5.29,1.33,1.63,0,3.06-.28,4.28-.83s2.24-1.28,3.06-2.2c.82-.91,1.44-1.98,1.87-3.2.43-1.22.67-2.53.72-3.92v-2.16h-5.62Z"/>
  <path id="letter4" class="cls-1" d="M157.82,23.33h-9.94v16.85c0,1.1.02,2.12.07,3.06.05.94.24,1.75.58,2.45.33.7.84,1.25,1.51,1.66.67.41,1.63.61,2.88.61.81,0,1.65-.1,2.52-.29.86-.19,1.68-.48,2.45-.86l.22,5.11c-.96.43-2.03.74-3.21.94-1.18.19-2.29.29-3.35.29-2.02,0-3.62-.26-4.82-.79-1.2-.53-2.14-1.27-2.81-2.23-.67-.96-1.12-2.15-1.33-3.56s-.32-2.99-.32-4.72v-18.5h-7.34v-4.75h7.34v-9.58h5.62v9.58h9.94v4.75Z"/>
  <path id="letter5" class="cls-1" d="M164.74,26.57c0-1.54-.05-2.98-.14-4.32-.1-1.34-.14-2.57-.14-3.67h5.33c0,.91.02,1.83.07,2.74.05.91.07,1.85.07,2.81h.14c.38-.82.92-1.61,1.62-2.38.7-.77,1.52-1.45,2.48-2.05.96-.6,2.04-1.08,3.24-1.44,1.2-.36,2.5-.54,3.89-.54.38,0,.77.02,1.15.07.38.05.77.14,1.15.29l-.36,5.69c-.96-.29-1.97-.43-3.02-.43-3.46,0-5.96,1.12-7.52,3.35-1.56,2.23-2.34,5.29-2.34,9.18v16.42h-5.62v-25.7Z"/>
  <path id="letter6" class="cls-1" d="M186.84,35.42c0-2.64.46-5.04,1.37-7.2.91-2.16,2.16-4.02,3.74-5.58,1.58-1.56,3.48-2.77,5.69-3.64,2.21-.86,4.61-1.3,7.2-1.3s4.99.43,7.2,1.3c2.21.86,4.1,2.08,5.69,3.64,1.58,1.56,2.83,3.42,3.74,5.58s1.37,4.56,1.37,7.2-.46,5.04-1.37,7.2c-.91,2.16-2.16,4.02-3.74,5.58-1.58,1.56-3.48,2.77-5.69,3.64-2.21.86-4.61,1.3-7.2,1.3s-4.99-.43-7.2-1.3c-2.21-.86-4.1-2.08-5.69-3.64-1.58-1.56-2.83-3.42-3.74-5.58-.91-2.16-1.37-4.56-1.37-7.2ZM192.89,35.42c0,1.78.28,3.42.83,4.93s1.36,2.83,2.41,3.96c1.06,1.13,2.32,2.02,3.78,2.66,1.46.65,3.11.97,4.93.97s3.47-.32,4.93-.97c1.46-.65,2.72-1.54,3.78-2.66,1.06-1.13,1.86-2.45,2.41-3.96s.83-3.16.83-4.93-.28-3.42-.83-4.93c-.55-1.51-1.36-2.83-2.41-3.96-1.06-1.13-2.32-2.02-3.78-2.66-1.46-.65-3.11-.97-4.93-.97s-3.47.32-4.93.97c-1.46.65-2.72,1.54-3.78,2.66-1.06,1.13-1.86,2.45-2.41,3.96-.55,1.51-.83,3.16-.83,4.93Z"/>
</svg>